<svg width="218" height="218" viewBox="0 0 218 218" fill="none" xmlns="http://www.w3.org/2000/svg">
<path d="M98.993 7.79668C101.341 -2.59887 116.153 -2.59891 118.501 7.79665L126.695 44.0712C128.217 50.8085 135.949 54.0111 141.789 50.3231L173.233 30.4671C182.244 24.7768 192.718 35.2505 187.027 44.2617L167.171 75.7056C163.483 81.5458 166.686 89.2773 173.423 90.7991L209.698 98.993C220.093 101.341 220.093 116.153 209.698 118.501L173.423 126.695C166.686 128.217 163.483 135.949 167.171 141.789L187.027 173.233C192.718 182.244 182.244 192.718 173.233 187.027L141.789 167.171C135.949 163.483 128.217 166.686 126.695 173.423L118.501 209.698C116.153 220.093 101.341 220.093 98.993 209.698L90.7991 173.423C89.2773 166.686 81.5458 163.483 75.7056 167.171L44.2617 187.027C35.2505 192.718 24.7767 182.244 30.4671 173.233L50.3231 141.789C54.011 135.949 50.8085 128.217 44.0712 126.695L7.79667 118.502C-2.59888 116.153 -2.59892 101.341 7.79663 98.993L44.0712 90.7991C50.8085 89.2773 54.011 81.5458 50.3231 75.7056L30.4671 44.2617C24.7768 35.2505 35.2505 24.7768 44.2617 30.4671L75.7056 50.3231C81.5457 54.0111 89.2773 50.8086 90.7991 44.0712L98.993 7.79668Z" fill="#3FC263"/>
</svg>
